# xmcd
#
# Track frame offsets: 
#        150
#        34639
#        52184
#        78144
#        115850
#        128693
#        135735
#        154111
#        174145
#        194582
#        210356
#
# Disc length: 3343 seconds
#
# Revision: 0
# Processed by: cddbd v1.5.2PL0 Copyright (c) Steve Scherf et al.
# Submitted via: ExactAudioCopyFreeDBPlugin 1.0
#
DISCID=8a0d0d0b
DTITLE=Philippe Mouratoglou - Steady Rollin' Man
DYEAR=2012
DGENRE=Blues
TTITLE0=Come On In My Kitchen
TTITLE1=Terraplane Blues - Stones In My Passway
TTITLE2=Love In Vain
TTITLE3=Preaching Blues
TTITLE4=Crossroad Blues
TTITLE5=Ramblin' On My Mind
TTITLE6=When You Got a Good Friend
TTITLE7=Me And The Devil Blues
TTITLE8=I'm A Steady Rollin' Man
TTITLE9=Malted Milk
TTITLE10=Hellhound On My Trail
EXTD=
EXTT0=
EXTT1=
EXTT2=
EXTT3=
EXTT4=
EXTT5=
EXTT6=
EXTT7=
EXTT8=
EXTT9=
EXTT10=
PLAYORDER=
